<?xml version="1.0" encoding="UTF-8"?>
<svg id="Icons" xmlns="http://www.w3.org/2000/svg" xmlns:xlink="http://www.w3.org/1999/xlink" viewBox="0 0 96.6 96.6">
  <defs>
    <style>
      .cls-1 {
        stroke: url(#linear-gradient-12);
      }

      .cls-1, .cls-2, .cls-3, .cls-4, .cls-5, .cls-6, .cls-7, .cls-8, .cls-9, .cls-10, .cls-11, .cls-12 {
        fill: none;
        stroke-linecap: round;
        stroke-linejoin: round;
        stroke-width: 6px;
      }

      .cls-2 {
        stroke: url(#linear-gradient-11);
      }

      .cls-3 {
        stroke: url(#linear-gradient-10);
      }

      .cls-13 {
        fill: #fdb515;
      }

      .cls-4 {
        stroke: url(#linear-gradient-8);
      }

      .cls-5 {
        stroke: url(#linear-gradient-9);
      }

      .cls-6 {
        stroke: url(#linear-gradient-4);
      }

      .cls-7 {
        stroke: url(#linear-gradient-3);
      }

      .cls-8 {
        stroke: url(#linear-gradient-5);
      }

      .cls-9 {
        stroke: url(#linear-gradient-7);
      }

      .cls-10 {
        stroke: url(#linear-gradient-6);
      }

      .cls-11 {
        stroke: url(#linear-gradient-2);
      }

      .cls-12 {
        stroke: url(#linear-gradient);
      }

      .cls-14 {
        fill: #003e7a;
      }

      .cls-15 {
        fill: #fbfbfb;
      }
    </style>
    <linearGradient id="linear-gradient" x1="54.6" y1="36" x2="54.6" y2="78" gradientUnits="userSpaceOnUse">
      <stop offset="0" stop-color="#fdb515" stop-opacity="0"/>
      <stop offset=".02" stop-color="#fdb515" stop-opacity=".04"/>
      <stop offset=".12" stop-color="#fdb515" stop-opacity=".24"/>
      <stop offset=".23" stop-color="#fdb515" stop-opacity=".42"/>
      <stop offset=".34" stop-color="#fdb515" stop-opacity=".56"/>
      <stop offset=".45" stop-color="#fdb515" stop-opacity=".69"/>
      <stop offset=".57" stop-color="#fdb515" stop-opacity=".78"/>
      <stop offset=".69" stop-color="#fdb515" stop-opacity=".85"/>
      <stop offset=".83" stop-color="#fdb515" stop-opacity=".89"/>
      <stop offset="1" stop-color="#fdb515" stop-opacity=".9"/>
    </linearGradient>
    <linearGradient id="linear-gradient-2" x1="537.17" y1="582.82" x2="580.41" y2="539.57" gradientTransform="translate(600.79 600.79) rotate(-90) scale(1 -1)" xlink:href="#linear-gradient"/>
    <linearGradient id="linear-gradient-3" x1="80.1" y1="78" x2="80.1" y2="45" gradientUnits="userSpaceOnUse">
      <stop offset="0" stop-color="#003e7a" stop-opacity="0"/>
      <stop offset=".1" stop-color="#003e7a" stop-opacity=".21"/>
      <stop offset=".26" stop-color="#003e7a" stop-opacity=".46"/>
      <stop offset=".42" stop-color="#003e7a" stop-opacity=".65"/>
      <stop offset=".58" stop-color="#003e7a" stop-opacity=".79"/>
      <stop offset=".77" stop-color="#003e7a" stop-opacity=".87"/>
      <stop offset="1" stop-color="#003e7a" stop-opacity=".9"/>
    </linearGradient>
    <linearGradient id="linear-gradient-4" x1="66.6" y1="18" x2="66.6" y2="42" xlink:href="#linear-gradient-3"/>
    <linearGradient id="linear-gradient-5" x1="50.72" y1="32.12" x2="19.47" y2=".88" xlink:href="#linear-gradient-3"/>
    <linearGradient id="linear-gradient-6" x1="23.72" y1=".88" x2="2.97" y2="21.62" xlink:href="#linear-gradient"/>
    <linearGradient id="linear-gradient-7" x1="78.21" y1="95.61" x2="92.48" y2="70.89" xlink:href="#linear-gradient"/>
    <linearGradient id="linear-gradient-8" x1="63.6" y1="61.5" x2="63.6" y2="94.5" xlink:href="#linear-gradient-3"/>
    <linearGradient id="linear-gradient-9" x1="18.6" y1="16.5" x2="18.6" y2="49.5" xlink:href="#linear-gradient-3"/>
    <linearGradient id="linear-gradient-10" x1="15.6" y1="66" x2="15.6" y2="96" xlink:href="#linear-gradient-3"/>
    <linearGradient id="linear-gradient-11" x1="12.6" y1="78" x2="12.6" y2="90" gradientUnits="userSpaceOnUse">
      <stop offset="0" stop-color="#fbfbfb" stop-opacity="0"/>
      <stop offset=".01" stop-color="#fbfbfb" stop-opacity=".03"/>
      <stop offset=".12" stop-color="#fbfbfb" stop-opacity=".23"/>
      <stop offset=".22" stop-color="#fbfbfb" stop-opacity=".41"/>
      <stop offset=".33" stop-color="#fbfbfb" stop-opacity=".56"/>
      <stop offset=".45" stop-color="#fbfbfb" stop-opacity=".68"/>
      <stop offset=".57" stop-color="#fbfbfb" stop-opacity=".78"/>
      <stop offset=".69" stop-color="#fbfbfb" stop-opacity=".85"/>
      <stop offset=".83" stop-color="#fbfbfb" stop-opacity=".89"/>
      <stop offset="1" stop-color="#fbfbfb" stop-opacity=".9"/>
    </linearGradient>
    <linearGradient id="linear-gradient-12" x1="18.9" y1="59.38" x2="18.9" y2="96" xlink:href="#linear-gradient-11"/>
  </defs>
  <polyline class="cls-12" points="75.6 39 39.6 75 33.6 75"/>
  <polyline class="cls-11" points="21.6 63 21.6 57 57.6 21"/>
  <line class="cls-7" x1="66.6" y1="48" x2="93.6" y2="75"/>
  <line class="cls-6" x1="57.6" y1="21" x2="75.6" y2="39"/>
  <line class="cls-8" x1="21.6" y1="3" x2="48.6" y2="30"/>
  <line class="cls-10" x1="21.6" y1="3" x2="5.1" y2="19.5"/>
  <line class="cls-9" x1="93.6" y1="75" x2="77.1" y2="91.5"/>
  <line class="cls-4" x1="77.1" y1="91.5" x2="50.1" y2="64.5"/>
  <line class="cls-5" x1="5.1" y1="19.5" x2="32.1" y2="46.5"/>
  <line class="cls-3" x1="3.6" y1="69" x2="27.6" y2="93"/>
  <line class="cls-2" x1="15.6" y1="81" x2="9.6" y2="87"/>
  <circle class="cls-15" cx="57.6" cy="21" r="3"/>
  <circle class="cls-13" cx="48.6" cy="30" r="3"/>
  <circle class="cls-15" cx="21.6" cy="3" r="3"/>
  <circle class="cls-14" cx="5.1" cy="19.5" r="3"/>
  <circle class="cls-15" cx="32.1" cy="46.5" r="3"/>
  <circle class="cls-15" cx="9.6" cy="87" r="3"/>
  <circle class="cls-14" cx="15.6" cy="81" r="3"/>
  <circle class="cls-13" cx="77.1" cy="91.5" r="3"/>
  <circle class="cls-15" cx="93.6" cy="75" r="3"/>
  <circle class="cls-13" cx="75.6" cy="39" r="3"/>
  <circle class="cls-15" cx="66.6" cy="48" r="3"/>
  <path class="cls-1" d="M3.59,68.95c3.14-4,8.01-6.57,13.49-6.57,9.46,0,17.14,7.67,17.14,17.14,0,5.47-2.56,10.34-6.56,13.48"/>
  <circle class="cls-14" cx="33.6" cy="75" r="3"/>
  <circle class="cls-14" cx="21.6" cy="63" r="3"/>
  <circle class="cls-15" cx="27.6" cy="93" r="3"/>
  <circle class="cls-13" cx="50.1" cy="64.5" r="3"/>
  <circle class="cls-13" cx="3.6" cy="69" r="3"/>
</svg>