<svg width="30" height="30" xmlns="http://www.w3.org/2000/svg" fill="none" viewBox="0 0 24 24"><path fill="#1b96ff" fill-rule="evenodd" d="M12 20.625a8.625 8.625 0 100-17.25 8.625 8.625 0 000 17.25zm0-2.25a6.375 6.375 0 100-12.75 6.375 6.375 0 000 12.75z" clip-rule="evenodd"/><path d="M17.553 5.4a8.617 8.617 0 012.94 5.09l.677-1.171a.937.937 0 000-.938L19.718 5.87a.937.937 0 00-.812-.47h-1.354zm2.94 8.11a8.616 8.616 0 01-2.94 5.09h1.354a.937.937 0 00.812-.469l1.45-2.512a.938.938 0 000-.938l-.676-1.171zm-5.554 6.601a8.608 8.608 0 01-2.939.514 8.611 8.611 0 01-2.937-.513l.675 1.17c.168.29.477.468.812.468h2.901a.938.938 0 00.812-.469l.676-1.17zM6.447 18.6a8.616 8.616 0 01-2.94-5.09l-.676 1.171a.938.938 0 000 .938l1.45 2.512a.94.94 0 00.812.469h1.354zm-2.94-8.112A8.617 8.617 0 016.447 5.4H5.094a.938.938 0 00-.812.469L2.832 8.38a.938.938 0 000 .938l.675 1.17zm10.756-7.769l.676 1.17A8.609 8.609 0 0012 3.375a8.61 8.61 0 00-2.937.513l.675-1.17a.938.938 0 01.812-.468h2.901c.335 0 .645.179.812.469z" fill="#0b5cab"/></svg>