<svg width="30" height="30" xmlns="http://www.w3.org/2000/svg" fill="none" viewBox="0 0 24 24"><path fill="#1b96ff" d="M19.975 6.854l-7.507-4.333a.937.937 0 00-.937 0L4.025 6.854a.937.937 0 00-.47.812v6.811c0 .38.427.601.737.385l1.118-.778a.938.938 0 00.402-.77v-4.66c0-.134.072-.258.188-.325l5.813-3.346a.375.375 0 01.374 0l5.812 3.346a.374.374 0 01.188.325v4.685a.94.94 0 00.374.749l1.132.851c.309.233.75.012.75-.374V7.666a.938.938 0 00-.468-.812z"/><path d="M19.29 19.334a2.437 2.437 0 11-4.876 0 2.437 2.437 0 014.875 0zm-4.852-7.313a2.437 2.437 0 11-4.875 0 2.437 2.437 0 014.874 0zm-4.875 7.313a2.437 2.437 0 11-4.875 0 2.437 2.437 0 014.875 0z" fill="#032d60"/><path d="M12.279 14.443l2.479 3.642a2.437 2.437 0 011.917-1.183l-2.532-3.718a2.439 2.439 0 01-1.864 1.259zm-.502.006a2.438 2.438 0 01-1.893-1.217L7.46 16.919a2.44 2.44 0 011.836 1.304l2.481-3.774z" fill="#0b5cab"/></svg>