<svg width="30" height="30" xmlns="http://www.w3.org/2000/svg" viewBox="0 0 24 24"><path fill="#1b96ff" fill-rule="evenodd" d="M6.297 9.132a6.002 6.002 0 0111.634.954A5.002 5.002 0 0117 20H7.5A5.5 5.5 0 016.297 9.132zM12 7a4.002 4.002 0 00-3.923 3.213 1 1 0 01-.892.8A3.5 3.5 0 007.5 18H17a3 3 0 100-6 1 1 0 01-1-1 4 4 0 00-4-4zm-5.005 7.976a1 1 0 011-1h.01a1 1 0 110 2h-.01a1 1 0 01-1-1zm4 0a1 1 0 011-1h.01a1 1 0 110 2h-.01a1 1 0 01-1-1zm4 0a1 1 0 011-1h.01a1 1 0 110 2h-.01a1 1 0 01-1-1z" clip-rule="evenodd"/></svg>