<svg width="26" height="26" xmlns="http://www.w3.org/2000/svg" fill="none" viewBox="0 0 24 24"><path fill="#1b96ff" fill-rule="evenodd" d="M12.324 5.292a.937.937 0 01-.554 0l-3.194-.988a.938.938 0 00-.554 0l-.424.132a.937.937 0 00-.66.895v7.134c0 .336.18.646.47.813l4.173 2.392a.938.938 0 00.932 0l4.172-2.392a.938.938 0 00.471-.813V5.33a.937.937 0 00-.66-.895l-.424-.132a.937.937 0 00-.554 0l-3.194.988zm2.582 2.065A.375.375 0 0014.42 7l-2.096.648a.937.937 0 01-.554 0L9.673 7a.375.375 0 00-.485.358v4.13c0 .134.071.259.188.325l2.484 1.425a.375.375 0 00.373 0l2.485-1.425a.375.375 0 00.188-.325v-4.13z" clip-rule="evenodd"/><path fill="#0b5cab" d="M5.813 7.124v6.712c0 .134.071.258.187.325l5.86 3.383a.375.375 0 00.374 0l5.86-3.383a.375.375 0 00.187-.325V7.124a.47.47 0 01.235-.406l1.312-.757a.469.469 0 01.703.406v8.443a.938.938 0 01-.469.812l-7.546 4.357a.937.937 0 01-.938 0l-7.547-4.357a.938.938 0 01-.468-.812V6.367c0-.361.39-.587.703-.406l1.312.757a.469.469 0 01.234.406z"/></svg>