<svg width="30" height="30" xmlns="http://www.w3.org/2000/svg" fill="none" viewBox="0 0 24 24"><path fill="#032d60" fill-rule="evenodd" d="M17.906 9.75c.156 0 .282.126.282.281v1.219l-2.25 3.844V10.03a.28.28 0 01.28-.281h1.688z" clip-rule="evenodd"/><path fill="#0b5cab" fill-rule="evenodd" d="M14.531 6.938a.28.28 0 01.281.28v9.845h-2.25V7.219c0-.156.126-.282.282-.282h1.687z" clip-rule="evenodd"/><path fill="#032d60" fill-rule="evenodd" d="M11.156 8.86a.28.28 0 01.281.28v7.922h-2.25v-7.92c0-.156.126-.282.282-.282h1.687z" clip-rule="evenodd"/><path fill="#0b5cab" fill-rule="evenodd" d="M7.828 13.594c.13 0 .234.105.234.234v3.235h-2.25v-3.235c0-.13.105-.234.235-.234h1.781z" clip-rule="evenodd"/><path d="M8.652 5.813A.375.375 0 008.327 6l-4.372 7.572a.469.469 0 01-.812 0l-.622-1.078a.937.937 0 010-.938l4.344-7.525a.938.938 0 01.812-.468h8.69c.335 0 .644.178.812.468L17.8 5.11a.469.469 0 01-.406.704H8.652zm6.638 12.4a.375.375 0 00.324-.187l4.372-7.55a.469.469 0 01.811.001l.623 1.079a.938.938 0 010 .938l-4.344 7.501a.938.938 0 01-.811.468h-8.59a.937.937 0 01-.812-.469l-.623-1.078a.469.469 0 01.406-.703h8.644z" fill="#1b96ff"/></svg>