<svg width="30" height="28" viewBox="0 0 30 28" fill="none" xmlns="http://www.w3.org/2000/svg"><path fill-rule="evenodd" clip-rule="evenodd" d="M14.063 4.667c.309-.026.621-.042.937-.042.316 0 .628.016.938.042V.907A14.57 14.57 0 0015 .875c-.315 0-.627.013-.938.032v3.76zm-4.724 1.49a10.777 10.777 0 00-1.536 1.075l-2.156-3.08a14.462 14.462 0 011.536-1.076l2.156 3.08zM.905 10.744c-.108.296-.203.594-.29.892l3.532 1.285c.082-.299.173-.598.281-.895.109-.297.23-.584.36-.866L1.255 9.875c-.124.285-.242.574-.35.87zm23.448-6.593l-2.156 3.08c-.24-.199-.485-.391-.744-.572a11.41 11.41 0 00-.792-.504l2.156-3.08a14.28 14.28 0 011.537 1.076zm4.742 6.593a15.262 15.262 0 00-.35-.87l-3.533 1.286c.13.282.252.57.36.866.108.297.199.596.28.895l3.534-1.285a15.21 15.21 0 00-.29-.892zm-23.47 14.51v-2.04a22.615 22.615 0 0018.75 0v2.04a24.44 24.44 0 01-18.75 0zM15 6.5a9.375 9.375 0 00-9.375 9.374v4.192c.609.33 1.235.627 1.875.891v-5.083a7.5 7.5 0 1115 0v5.083c.64-.264 1.266-.561 1.875-.89v-4.193A9.375 9.375 0 0015 6.5zm.938 16.853a20.82 20.82 0 01-1.876 0v-4.838a2.813 2.813 0 111.876 0v4.838z" fill="#a6263b"/></svg>