<svg width="30" height="30" xmlns="http://www.w3.org/2000/svg" fill="none" viewBox="0 0 24 24"><path fill="#0b5cab" d="M16.334 13.125a4.535 4.535 0 000-2.25h5.01a.23.23 0 01.23.2 7.424 7.424 0 010 1.85.23.23 0 01-.23.2h-5.01z"/><path fill="#032d60" fill-rule="evenodd" d="M12 15.375a3.375 3.375 0 100-6.75 3.375 3.375 0 000 6.75zm0-2.25a1.125 1.125 0 100-2.25 1.125 1.125 0 000 2.25z" clip-rule="evenodd"/><path fill="#1b96ff" d="M12 3.375a8.627 8.627 0 00-7.939 5.25H3.05a.276.276 0 00-.262.185 9.75 9.75 0 000 6.38.276.276 0 00.262.185h1.01a8.627 8.627 0 0014.196 2.563c.2-.211.14-.55-.112-.695l-.864-.499c-.377-.217-.848-.141-1.18.138a6.375 6.375 0 110-9.765c.332.28.804.356 1.18.139l.864-.5a.447.447 0 00.112-.694A8.6 8.6 0 0012 3.375z"/></svg>