<svg width="30" height="30" xmlns="http://www.w3.org/2000/svg" fill="none" viewBox="0 0 24 24"><path fill="#032d60" d="M10.063 12.002L7.768 8.024l1.31-2.271.986 1.697.898-1.562a.469.469 0 01.813.001l.627 1.098a.937.937 0 01.002.926l-1.053 1.86-1.287 2.229z"/><path fill="#0b5cab" d="M12.645 16.471l1.286-2.228.83 1.44a.187.187 0 00.325-.001l2.567-4.466a.375.375 0 00.006-.364L16.17 8.076l1.346-2.355 2.666 4.667a.938.938 0 010 .93l-4.432 7.753a.937.937 0 01-1.629-.002l-1.476-2.598z"/><path fill="#1b96ff" d="M6.216 10.991l2.536 4.392c.145.25.506.25.65 0L15.824 4.2a.469.469 0 01.813 0l.879 1.522L9.882 19.08a.938.938 0 01-1.628 0l-4.436-7.762a.937.937 0 010-.931L7.363 4.2a.469.469 0 01.812-.002l.903 1.554-2.862 4.957a.281.281 0 000 .281z"/></svg>