<svg width="30" height="30" xmlns="http://www.w3.org/2000/svg" fill="none" viewBox="0 0 24 24"><path d="M2.793 11.062a.375.375 0 01.325-.187h4.1c.156 0 .282.126.282.281v1.688a.281.281 0 01-.281.281H3.118a.375.375 0 01-.325-.187l-.434-.75a.375.375 0 010-.376l.434-.75zM4.917 7.68a.375.375 0 01.32-.18h1.982c.155 0 .281.126.281.281V9.47a.281.281 0 01-.28.281H3.984a.187.187 0 01-.16-.285L4.916 7.68zm-1.1 6.856a.187.187 0 01.16-.286h3.241c.156 0 .282.126.282.281v1.688a.281.281 0 01-.282.281H5.235a.375.375 0 01-.32-.178l-1.098-1.786z" fill="#0b5cab"/><path fill="#032d60" fill-rule="evenodd" d="M12 15.375a3.375 3.375 0 100-6.75 3.375 3.375 0 000 6.75zm0-2.25a1.125 1.125 0 100-2.25 1.125 1.125 0 000 2.25z" clip-rule="evenodd"/><path d="M12 2.25H8.52a.469.469 0 00-.4.223l-.81 1.312a.469.469 0 00.4.715H12a7.496 7.496 0 016.42 3.62c.184.303.503.505.857.505h1.201a.445.445 0 00.418-.623 9.752 9.752 0 00-8.895-5.752zm9.477 8.625c.12 0 .22.09.231.208.028.302.043.608.043.917 0 5.385-4.366 9.75-9.75 9.75H8.79a.937.937 0 01-.796-.44l-.682-1.093a.469.469 0 01.398-.717H12a7.504 7.504 0 007.339-5.946.36.36 0 00-.359-.429h-2.623a4.51 4.51 0 000-2.25h5.12z" fill="#1b96ff"/></svg>