<svg width="16" height="16" xmlns="http://www.w3.org/2000/svg" fill="none" viewBox="0 0 24 24"><path fill="#032d60" d="M19.798 16.229l-1.246-.72a.469.469 0 010-.811l1.246-.72v2.251z"/><path fill="#0b5cab" d="M6.567 17.59l1.39.803c.088.05.195.05.282 0l1.387-.8a.281.281 0 000-.488l-1.39-.803a.281.281 0 00-.281 0l-1.388.8a.281.281 0 000 .488zm-3.894-2.25l1.39.803c.087.05.194.05.281 0l1.388-.8a.281.281 0 000-.488l-1.39-.803a.281.281 0 00-.282 0l-1.387.8a.281.281 0 000 .488zm7.797 4.503l1.39.803c.087.05.195.05.282 0l1.387-.801a.281.281 0 000-.487l-1.39-.803a.281.281 0 00-.282 0l-1.387.8a.281.281 0 000 .488zm3.9-2.253l1.39.802a.28.28 0 00.28 0l1.388-.8a.281.281 0 000-.488l-1.39-.802a.281.281 0 00-.281 0l-1.388.8a.281.281 0 000 .487z"/><path fill="#032d60" d="M11.998 10.067L13.95 8.94v4.984a.937.937 0 01-.467.81l-1.016.59a.937.937 0 01-.938 0l-.779-.45a.469.469 0 010-.81l.781-.453a.938.938 0 00.468-.812v-2.732z"/><path fill="#1b96ff" d="M21.747 9.483a.937.937 0 00-.469-.811l-8.811-5.089a.937.937 0 00-.938 0L3.376 8.295a.75.75 0 000 1.299l4.253 2.456a.94.94 0 00.938 0l5.382-3.109-1.482-.855a.937.937 0 00-.937 0L8.282 9.959a.375.375 0 01-.374 0l-1.48-.855a.188.188 0 010-.325l5.383-3.107a.375.375 0 01.375 0l7.61 4.396h.001l.001 6.161 1.48-.856a.937.937 0 00.47-.812l-.001-5.078z"/></svg>