<svg width="30" height="30" xmlns="http://www.w3.org/2000/svg" viewBox="0 0 24 24"><path fill-rule="evenodd" d="M14.728 2.88a3.013 3.013 0 014.257 0l2.133 2.13a3.005 3.005 0 010 4.254l-2.412 2.406-9.186 9.172a1 1 0 01-.526.276l-4.626.849a2.005 2.005 0 01-2.34-2.301l.77-4.613a1 1 0 01.28-.543l9.239-9.223 2.41-2.407zM18 9.55l1.704-1.701a1.005 1.005 0 000-1.424l-2.132-2.13a1.014 1.014 0 00-1.431 0l-1.702 1.7L18 9.55zm-4.977-2.143L4.718 15.7 4 19.995v.002h.001l.003.003h.003l4.32-.793 8.258-8.244-3.562-3.556z" clip-rule="evenodd"/></svg>