<svg width="16" height="16" xmlns="http://www.w3.org/2000/svg" viewBox="0 0 24 24"><path fill="#032d60" fill-rule="evenodd" d="M13.003 3.544a5.27 5.27 0 117.453 7.453l-3.45 3.45a5.271 5.271 0 01-6.885.495 1 1 0 111.2-1.6 3.271 3.271 0 004.27-.309l3.451-3.45a3.27 3.27 0 00-4.625-4.625l-.431.431a1 1 0 11-1.414-1.414l.431-.431zm-.324 7.115a3.271 3.271 0 00-4.27.307l-3.451 3.451a3.27 3.27 0 104.625 4.625l.431-.431a1 1 0 011.414 1.414l-.431.431a5.27 5.27 0 01-7.453-7.453l3.45-3.45a5.271 5.271 0 016.885-.494 1 1 0 11-1.2 1.6z" clip-rule="evenodd"/></svg>