<svg width="30" height="30" xmlns="http://www.w3.org/2000/svg" fill="none" viewBox="0 0 24 24"><path d="M10.764 7.5l-.112 2.25h9.656l.886-1.548a.469.469 0 00-.407-.702H10.764zm-8.179 6.75h7.844l-.112 2.25h9.99l.887 1.548a.469.469 0 01-.407.702H10.452a.234.234 0 01-.234-.246l.1-2.004H2.495a.234.234 0 01-.234-.246l.089-1.781a.234.234 0 01.234-.223z" fill="#0b5cab"/><path fill="#032d60" d="M10.54 12l-.111 2.25h8.59l-.564-.985a.281.281 0 010-.28l.564-.985H10.54z"/><path d="M2.992 7.5h7.772l.097-1.955a.281.281 0 00-.281-.295H3.076a.281.281 0 00-.281.267L2.71 7.205c-.008.16.12.295.28.295zm7.66 2.25h-7.8a.281.281 0 00-.28.267l-.084 1.688c-.008.16.12.295.28.295h7.773l.111-2.25z" fill="#1b96ff"/></svg>