<svg width="30" height="30" viewBox="0 0 30 30" fill="none" xmlns="http://www.w3.org/2000/svg"><path d="M9.375 14.981H7.5v-4.668a8.418 8.418 0 012.863-6.327l1.084 1.547a6.545 6.545 0 00-2.072 4.78v4.668zm6.563 11.269a6.57 6.57 0 01-6.563-6.563v-.937H7.5v.938c0 4.652 3.785 8.437 8.438 8.437.782 0 1.538-.11 2.257-.31l-1.161-1.658a6.56 6.56 0 01-1.096.093zm0-22.5c3.3 0 6.037 2.449 6.494 5.625h1.89c-.468-4.213-4.049-7.5-8.384-7.5-1.463 0-2.84.375-4.041 1.032l1.085 1.55a6.52 6.52 0 012.956-.707z" fill="#00A3E0"/><path d="M15.938 22.5a2.816 2.816 0 01-2.813-2.813v-6.562H11.25v6.563a4.693 4.693 0 004.688 4.687 4.696 4.696 0 004.593-3.75h-1.945a2.815 2.815 0 01-2.648 1.875z" fill="#087299"/><path d="M16.875 19.688v-9.413a.937.937 0 00-1.875 0v9.412a.938.938 0 001.875 0z" fill="#114459"/><path d="M22.5 11.25v8.438a6.518 6.518 0 01-.86 3.24l1.16 1.658a8.389 8.389 0 001.575-4.898V11.25H22.5z" fill="#00A3E0"/><path d="M15.938 5.625a4.693 4.693 0 00-4.688 4.688v.937h1.875v-.938A2.816 2.816 0 0115.938 7.5a2.816 2.816 0 012.812 2.813v6.562h1.875v-6.563a4.693 4.693 0 00-4.688-4.687z" fill="#087299"/></svg>