<svg xmlns="http://www.w3.org/2000/svg" fill="none" viewBox="0 0 24 24"><path fill="#1b96ff" d="M11.813 4.895a.271.271 0 00-.295-.274A5.971 5.971 0 006.52 8.417a.406.406 0 01-.27.245 5.477 5.477 0 00-3.999 5.27 5.479 5.479 0 005.484 5.474h3.797a.281.281 0 00.281-.281v-1.688a.281.281 0 00-.28-.28h-3.8A3.229 3.229 0 014.5 13.932a3.228 3.228 0 012.943-3.211l.14-.012a.937.937 0 00.836-.75l.028-.138a3.717 3.717 0 013.106-2.94.298.298 0 00.26-.289V4.895z"/><path d="M12.914 8.857a1.125 1.125 0 102.25 0 1.125 1.125 0 00-2.25 0zm3.376 0a1.125 1.125 0 102.249 0 1.125 1.125 0 00-2.25 0z" fill="#032d60"/><path fill="#0b5cab" d="M14.352 6.844a.281.281 0 01-.281-.282V4.875c0-.155.126-.281.281-.281h6.438c.517 0 .937.42.937.937V18.47c0 .517-.42.937-.938.937h-6.437a.281.281 0 01-.281-.281v-1.688a.28.28 0 01.281-.28h4.75a.375.375 0 00.375-.376V13.5a.375.375 0 00-.375-.375h-4.75a.281.281 0 01-.281-.281v-1.688c0-.155.126-.281.281-.281h4.75a.375.375 0 00.375-.375V7.219a.375.375 0 00-.375-.375h-4.75z"/><path d="M12.914 15.138a1.125 1.125 0 102.25 0 1.125 1.125 0 00-2.25 0zm3.376 0a1.125 1.125 0 102.249 0 1.125 1.125 0 00-2.25 0z" fill="#032d60"/></svg>