<svg width="15" height="19" viewBox="0 0 15 19" fill="none" xmlns="http://www.w3.org/2000/svg"><path d="M4.504 12h6l.5.5s1.5 2 2.5 3.5-.5 2-.5 2h-11l-.5-.5V16l3-4z" fill="#A2C7FF" fill-opacity=".4"/><path d="M4.004 11.5h7m-8-6h9m-7.922 0l1.433 1.868A2.14 2.14 0 015.65 9.48L1.151 16c-.418.962.028 2.5 1.353 2.5h10c1.329 0 1.777-1.538 1.36-2.5l-4.46-6.521a2.125 2.125 0 01.136-2.112L10.927 5.5" stroke="#5C5C5C"/><path d="M7.504 3.5a.5.5 0 100-1 .5.5 0 000 1z" fill="#014486"/><path d="M8.504 1a.5.5 0 100-1 .5.5 0 000 1z" fill="#57A3FD"/><path d="M9.504 4.5a.5.5 0 100-1 .5.5 0 000 1z" fill="#0176D3"/></svg>