<svg width="30" height="30" xmlns="http://www.w3.org/2000/svg" fill="none" viewBox="0 0 24 24"><path fill="#1b96ff" d="M4.1 7.366a.94.94 0 01.47-.812l1.078-.622a.469.469 0 01.703.406v11.324c0 .36-.39.586-.703.406l-1.078-.623a.938.938 0 01-.47-.811V7.366z"/><path fill="#032d60" d="M17.6 13.06c0-.364.398-.59.71-.402l1.085.65a.936.936 0 01.456.804v2.579a.938.938 0 01-.469.811l-1.078.623a.469.469 0 01-.703-.406V13.06z"/><path fill="#0b5cab" d="M13.1 8.756a.47.47 0 01.704-.406l1.078.623c.29.167.469.477.469.812v9.503a.938.938 0 01-.469.812l-1.078.623a.469.469 0 01-.703-.406V8.757z"/><path fill="#032d60" d="M8.6 11.95c0-.334.18-.644.47-.811l1.078-.623a.469.469 0 01.703.406v9.338c0 .36-.39.586-.703.406l-1.078-.623a.937.937 0 01-.47-.812v-7.28z"/></svg>