<svg width="30" height="30" viewBox="0 0 30 30" fill="none" xmlns="http://www.w3.org/2000/svg"><path fill-rule="evenodd" clip-rule="evenodd" d="M26.05 14.875A11.494 11.494 0 0022.948 7H7.102A11.494 11.494 0 004 14.875a11.495 11.495 0 003.102 7.875h15.846a11.493 11.493 0 003.102-7.875zm-18.23 6.3a9.987 9.987 0 01-2.245-6.3c0-2.318.811-4.54 2.245-6.3h3.386a9.987 9.987 0 012.244 6.3 9.988 9.988 0 01-2.245 6.3H7.82zm5.336 0h9.074a9.987 9.987 0 002.245-6.3c0-2.318-.811-4.54-2.245-6.3h-9.073a11.495 11.495 0 011.868 6.3c0 2.324-.687 4.488-1.869 6.3z" fill="#00A3E0"/></svg>