<svg width="28" height="28" viewBox="0 0 28 28" fill="none" xmlns="http://www.w3.org/2000/svg"><path fill-rule="evenodd" clip-rule="evenodd" d="M14 2c6.628 0 12 5.373 12 12s-5.373 12-12 12S2 20.627 2 14 7.373 2 14 2zm0 22.8c5.965 0 10.8-4.835 10.8-10.8 0-5.965-4.835-10.8-10.8-10.8C8.035 3.2 3.2 8.035 3.2 14c0 5.965 4.835 10.8 10.8 10.8zm3.324-14.45l-5.553 5.553L9.64 13.77a.995.995 0 00-1.415.005l-.277.277a1.005 1.005 0 00-.005 1.415l3.04 3.04c.22.219.514.316.801.288.282.02.57-.08.786-.297l6.452-6.452c.395-.394.395-1.03.003-1.423l-.277-.277a1 1 0 00-1.423.003z" fill="url(#paint0_linear_0_2640)"/><defs><linearGradient id="paint0_linear_0_2640" x1="-10.098" y1="14.108" x2="13.699" y2="38.711" gradientUnits="userSpaceOnUse"><stop stop-color="#86CF95"/><stop offset="1" stop-color="#008700"/></linearGradient></defs></svg>