<svg width="37" height="30" viewBox="0 0 37 30" fill="none" xmlns="http://www.w3.org/2000/svg"><path d="M35.323 18.75c-.057-.23-.057-.52.116-.692C36.422 16.269 37 14.25 37 12.115 37 5.423 31.277 0 24.281 0a13.172 13.172 0 00-7.978 2.712C23.53 4.269 28.906 10.5 28.906 17.885c0 2.076-.404 4.096-1.214 5.884a11.77 11.77 0 003.296-1.384c.23-.116.462-.174.693-.058l3.7 1.327c.636.23 1.272-.404 1.099-1.096l-1.157-3.808z" fill="#000"/><path d="M12.719 5.77C5.723 5.77 0 11.191 0 17.884c0 2.134.578 4.153 1.619 5.942.115.23.173.461.115.692L.52 28.385a.86.86 0 001.1 1.095l3.7-1.327c.231-.058.52-.058.694.058C7.978 29.364 10.232 30 12.719 30c6.995 0 12.719-5.423 12.719-12.115 0-6.693-5.724-12.116-12.72-12.116zM5.78 20.191a2.317 2.317 0 01-2.312-2.307c0-1.27 1.04-2.308 2.312-2.308a2.317 2.317 0 012.313 2.308 2.316 2.316 0 01-2.313 2.307zm6.938 0a2.317 2.317 0 01-2.313-2.307c0-1.27 1.04-2.308 2.313-2.308a2.317 2.317 0 012.312 2.308 2.316 2.316 0 01-2.312 2.307zm6.937 0a2.317 2.317 0 01-2.312-2.307c0-1.27 1.04-2.308 2.312-2.308a2.317 2.317 0 012.313 2.308 2.316 2.316 0 01-2.313 2.307z" fill="#000"/></svg>