<svg width="30" height="30" xmlns="http://www.w3.org/2000/svg" fill="none" viewBox="0 0 24 24"><path fill="#0b5cab" d="M16.627 4.967l-1.076-.615a.469.469 0 00-.701.407v3.17l2.25 3.893V5.781a.937.937 0 00-.473-.814zM7.28 18.95l1.067.624a.469.469 0 00.706-.405v-1.033l-2.238-3.875v3.879a.94.94 0 00.464.81zm.683-14.322l-.68.395a.938.938 0 00-.467.81V7.5l2.237 3.894V9.136l6.028 10.44a.28.28 0 00.383.104l1.464-.836a.281.281 0 00.104-.385L9.246 4.969a.937.937 0 00-1.283-.341z"/><path fill="#1b96ff" d="M5.05 6.325l-1.068.628a.938.938 0 00-.462.808v8.493c0 .343.188.659.489.823l1.056.575a.469.469 0 00.693-.411v-7.048l6.067 10.492a.937.937 0 001.277.345l.733-.419a.469.469 0 00.173-.642l-2.452-4.234-5.218-9.07a.938.938 0 00-1.288-.34zm13.895 11.336l1.07-.63a.937.937 0 00.461-.807V7.73a.937.937 0 00-.488-.823l-1.056-.575a.469.469 0 00-.693.411v7.048L12.172 3.3a.938.938 0 00-1.277-.345l-.734.42a.469.469 0 00-.174.64l7.67 13.306a.937.937 0 001.288.34z"/></svg>