<?xml version="1.0"?>
<svg xmlns="http://www.w3.org/2000/svg" id="Capa_1" enable-background="new 0 0 512 512" height="512px" viewBox="0 0 512 512" width="512px"><g><path d="m472 81h-65v-66c0-8.284-6.716-15-15-15h-352c-8.284 0-15 6.716-15 15v401c0 8.284 6.716 15 15 15h65v66c0 8.284 6.716 15 15 15h352c8.284 0 15-6.716 15-15v-401c0-8.284-6.716-15-15-15zm-417-51h322v371h-322zm402 452h-322v-51h257c8.284 0 15-6.716 15-15v-305h50z" fill="#FFFFFF"/><path d="m328 65h-224c-8.284 0-15 6.716-15 15s6.716 15 15 15h224c8.284 0 15-6.716 15-15s-6.716-15-15-15z" fill="#FFFFFF"/><path d="m328 273h-80c-8.284 0-15 6.716-15 15s6.716 15 15 15h80c8.284 0 15-6.716 15-15s-6.716-15-15-15z" fill="#FFFFFF"/><path d="m328 337h-224c-8.284 0-15 6.716-15 15s6.716 15 15 15h224c8.284 0 15-6.716 15-15s-6.716-15-15-15z" fill="#FFFFFF"/><path d="m104 303h80c8.284 0 15-6.716 15-15v-144c0-8.284-6.716-15-15-15h-80c-8.284 0-15 6.716-15 15v144c0 8.284 6.716 15 15 15zm15-144h50v114h-50z" fill="#FFFFFF"/><path d="m328 137h-80c-8.284 0-15 6.716-15 15s6.716 15 15 15h80c8.284 0 15-6.716 15-15s-6.716-15-15-15z" fill="#FFFFFF"/><path d="m328 201h-80c-8.284 0-15 6.716-15 15s6.716 15 15 15h80c8.284 0 15-6.716 15-15s-6.716-15-15-15z" fill="#FFFFFF"/></g></svg>
